<svg preserveAspectRatio="xMidYMid meet" data-bbox="0 -0.002 160 85.002" xmlns="http://www.w3.org/2000/svg" viewBox="0 -0.002 160 85.002" height="85" width="160" data-type="color" role="presentation" aria-hidden="true">
    <g>
        <path fill="#ffffff" d="M81.857 0c.443.058.834.127 1.228.172 9.645 1.106 16.798 5.615 21.418 13.456 2.546 4.319 3.513 9.002 2.94 13.882-1.083 9.221-6.217 15.957-15.11 20.244-3.488 1.681-7.264 2.468-11.204 2.588-12.971.396-24.068-7.655-27.282-18.605C49.776 17.863 59.265 3.553 74.57.596c1.297-.25 2.63-.349 3.966-.557A93.07 93.07 0 0 1 81.857 0Zm10.15 30.459c1.602-1.433 3.218-2.852 4.801-4.301 1.472-1.347 1.5-3.43.068-4.783a1237.177 1237.177 0 0 0-7.422-6.954c-1.463-1.36-3.77-1.364-5.24-.035-1.493 1.351-1.508 3.484-.03 4.859 1.127 1.05 2.257 2.096 3.386 3.144.87.806.873 1.51.005 2.32-1.391 1.299-2.787 2.593-4.175 3.895-1.01.946-2.053 1.866-3.002 2.86-1.283 1.347-1.11 3.398.313 4.627 1.403 1.212 3.657 1.208 5.05-.03 2.072-1.844 4.13-3.701 6.247-5.602Zm-24.622-2.75c-1.26 1.186-2.528 2.362-3.775 3.558-.965.925-1.258 2.033-.874 3.26.898 2.87 4.692 3.07 6.447 1.403 3.51-3.333 7.076-6.616 10.623-9.917 1.545-1.437 1.565-3.513.038-4.931-1.549-1.44-3.818-1.437-5.39.023-2.344 2.18-4.677 4.37-7.069 6.605Z" data-color="1"></path>
        <path fill="#ffffff" d="M37.644 80.582a19285.67 19285.67 0 0 0-4.302-6.542v10.472h-4.523v-18.19c1.44 0 2.875-.009 4.31.015.14.002.318.18.408.315 1.594 2.4 3.176 4.807 4.761 7.212.1.15.204.297.347.504l2.04-3.091c1.015-1.542 2.038-3.08 3.039-4.63.16-.247.328-.335.637-.332 1.35.016 2.7.007 4.086.007v18.19h-4.47V74.044c-.167.215-.259.318-.333.43-1.498 2.28-2.993 4.561-4.49 6.841-.34.516-.683.521-1.016.02-.16-.24-.316-.481-.494-.753Z" data-color="1"></path>
        <path fill="#ffffff" d="M102.993 66.028c4.367.826 7.202 3.162 8.263 7.115 1.399 5.213-1.916 10.33-7.476 11.54-6.43 1.4-11.434-2.45-12.502-6.84-1.495-6.14 2.611-10.59 7.431-11.663 1.401-.313 2.814-.333 4.284-.152Zm-6.401 12.71c.416.387.78.844 1.258 1.148 1.944 1.236 4.037 1.368 6.119.383 2.127-1.008 3.039-2.757 3.022-4.907-.016-2.055-.929-3.726-2.92-4.72-1.978-.988-4.031-.932-5.956.163-2.738 1.558-3.438 5.203-1.523 7.934Z" data-color="1"></path>
        <path fill="#ffffff" d="M121.102 79.133c-.186-.465-.503-.62-1.004-.571-.459.044-.927.01-1.418.01v5.938h-4.507V66.343c.048-.01.112-.035.176-.035 2.685.003 5.372-.026 8.056.023 3.4.062 6.324 2.844 6.344 5.965.015 2.45-1.005 4.053-3.598 5.6l4.18 6.65c-1.612 0-3.151.008-4.69-.014-.137-.002-.316-.182-.401-.318-1.047-1.679-2.08-3.365-3.138-5.081Zm-2.432-5.592v1.395h2.927c.162-.001.324-.008.484-.023 1.232-.11 2.088-1.007 2.131-2.23.046-1.27-.774-2.337-2.011-2.428-1.156-.084-2.325-.018-3.531-.018v3.304Z" data-color="1"></path>
        <path fill="#ffffff" d="M7.6 66.322h4.907l6.708 18.192h-4.97c-.29-.832-.573-1.682-.894-2.52-.052-.134-.274-.304-.418-.305-2.306-.02-4.612-.014-6.964-.014l-1 2.861H0l6.714-18.214H7.6Zm1.393 6.614-1.669 4.82h4.577l-2.288-6.603c-.226.637-.416 1.17-.62 1.783Z" data-color="1"></path>
        <path fill="#ffffff" d="M60.405 79.095c.483-.26.934-.5 1.376-.735.047.026.09.036.1.058 1.008 2.115 3.026 2.763 5.406 2.34.836-.148 1.314-.575 1.404-1.192.087-.604-.2-1.163-.974-1.45-1.263-.468-2.581-.807-3.859-1.243a20.14 20.14 0 0 1-2.357-.954c-2.424-1.189-3.005-3.246-2.68-5.343.363-2.333 2.094-3.947 4.834-4.48 3.448-.672 7.03.415 8.892 3.698.04.071.069.148.116.25l-3.791 2.068c-.171-.258-.324-.515-.504-.755-.855-1.144-2.413-1.65-3.859-1.254-.602.166-1.095.465-1.198 1.082-.105.628.206 1.132.786 1.41.727.35 1.503.617 2.269.895 1.349.49 2.733.905 4.055 1.45 2.254.932 3.015 3.203 2.781 5.105-.266 2.165-1.58 3.614-3.75 4.33-2.873.95-5.735.848-8.453-.52-1.49-.75-2.48-1.925-3.07-3.42l2.476-1.34Z" data-color="1"></path>
        <path fill="#ffffff" d="M145.623 72.677c-.688-3.526 1.599-6.317 5.604-6.713 3.38-.335 6.337.825 8.09 3.843.033.057.056.119.109.233l-3.796 2.072c-.176-.264-.331-.525-.513-.768-.854-1.135-2.432-1.64-3.866-1.238-.581.163-1.061.457-1.178 1.045-.124.624.174 1.144.749 1.426.74.362 1.535.631 2.317.915 1.333.483 2.701.891 4.006 1.43 2.33.963 3.046 3.267 2.813 5.136-.276 2.212-1.653 3.642-3.857 4.364-2.516.823-5.065.76-7.54-.186-1.87-.716-3.137-1.998-3.881-3.797l3.915-2.114c.65 1.37 1.68 2.307 3.29 2.473.804.083 1.646-.013 2.453-.135.628-.094 1.046-.51 1.11-1.133.063-.611-.223-1.108-.817-1.337-1.073-.413-2.188-.734-3.276-1.117-1.035-.364-2.089-.702-3.08-1.153-1.435-.653-2.322-1.745-2.652-3.246Z" data-color="1"></path>
        <path fill="#ffffff" d="M78.553 84.546h-3.105v-18.24c2.515 0 5.015-.004 7.515.005.394.001.79.044 1.18.098 3.49.488 6.049 3.592 5.623 6.814-.446 3.38-3.228 5.647-6.93 5.647h-2.88v5.676h-1.403Zm4.434-14.323h-3.014v4.732c1.034 0 2.045.059 3.041-.025a2.784 2.784 0 0 0 1.398-.55c.849-.665 1.016-1.58.716-2.54-.291-.929-.993-1.471-2.141-1.617Z" data-color="1"></path>
        <path fill="#ffffff" d="M134.607 82.455v-12.13h-5.06v-3.979h14.632v3.971h-5.022V84.51h-4.55v-2.055Z" data-color="1"></path>
        <path fill="#ffffff" d="M25.422 74.787v9.73h-4.505V66.341h4.505v8.445Z" data-color="1"></path>
    </g>
</svg>